<?xml version="1.0" encoding="utf-8"?>
<!-- Generator: Adobe Illustrator 22.1.0, SVG Export Plug-In . SVG Version: 6.00 Build 0)  -->
<svg version="1.1" xmlns="http://www.w3.org/2000/svg" xmlns:xlink="http://www.w3.org/1999/xlink" x="0px" y="0px"
	 viewBox="0 0 570.7 565" style="enable-background:new 0 0 570.7 565;" xml:space="preserve">
<style type="text/css">
	.st0{fill:#020202;}
	.st1{fill:#FFFFFF;}
	.st2{fill:#7BE2D0;}
</style>
<g id="Layer_4">
	<g>
		
			<text transform="matrix(0 -4.8777 1 0 1111.7119 406.1231)" style="stroke:#000000;stroke-width:18;stroke-miterlimit:10; font-family:'MyriadPro-Regular'; font-size:77.8498px;">I</text>
		
			<text transform="matrix(0 -4.8777 1 0 1548.665 182.5035)" style="stroke:#000000;stroke-width:18;stroke-miterlimit:10; font-family:'MyriadPro-Regular'; font-size:77.8498px;">I</text>
		
			<text transform="matrix(0.8139 0 0 1 1262.8984 377.3399)" style="stroke:#000000;stroke-width:18;stroke-miterlimit:10; font-family:'MyriadPro-Regular'; font-size:379.7288px;">W</text>
		<path class="st0" d="M1575.1,512.6h-532v-532h532V512.6z M1079.1,476.6h460v-460h-460V476.6z"/>
		
			<text transform="matrix(0.8139 0 0 1 1085.1992 377.6797)" style="stroke:#000000;stroke-width:18;stroke-miterlimit:10; font-family:'MyriadPro-Regular'; font-size:379.7288px;">N</text>
	</g>
</g>
<g id="Layer_5">
	<g>
		<g>
			<g>
				<path class="st1" d="M547.9,196.8h-42.8l-33.4,237.9h-57.2l-33.1-186.6l-33,186.6H291l-28.5-201v201h-55l-70.7-162.7v162.7h-0.5
					v0.1H59.1c49.3,72.9,132.8,120.9,227.5,120.9c151.6,0,274.5-122.9,274.5-274.5C561.1,251.7,556.5,223.3,547.9,196.8z"/>
			</g>
		</g>
		<g>
			<g>
				<path class="st2" d="M286.6,6.6C135,6.6,12.1,129.5,12.1,281.1c0,33.4,6,65.5,16.9,95.1h52.8v-238h54.5l71.1,164v-164H249h13.5
					h41.9l20,165.9l29.2-165.9h55.2L438.2,304l20-165.7h1.8v0h61.1C472.9,59.3,385.9,6.6,286.6,6.6z"/>
			</g>
		</g>
	</g>
</g>
</svg>
